<svg width="39" height="35" viewBox="0 0 39 35" fill="none" xmlns="http://www.w3.org/2000/svg">
<g clip-path="url(#clip0_2_181)">
<path d="M8.71 4.10111C8.71 6.618 6.97966 8.20222 4.35724 8.20222C1.73483 8.20222 0 6.618 0 4.10111C0 1.58422 1.73034 0 4.35276 0C6.97517 0 8.71 1.58422 8.71 4.10111ZM0.138966 35V10.1122H8.56655V35H0.138966Z" fill="#A8A8A8"/>
<path d="M38.9999 20.9248V34.9998H30.5724V22.3261C30.5724 21.5317 30.5724 20.184 30.4782 18.9256C30.2899 16.547 28.981 15.1502 26.4527 15.1502C23.8796 15.1502 22.0506 17.618 22.0506 23.2587V35.0042H13.623V10.112H22.0506V13.981L24.2965 10.9063C25.843 9.97365 27.6227 9.46045 29.9134 9.46045C35.0641 9.46045 38.1079 11.8836 38.7624 16.2168C38.9506 17.4752 38.9999 18.9211 38.9999 20.9248Z" fill="#A8A8A8"/>
</g>
<defs>
<clipPath id="clip0_2_181">
<rect width="39" height="35" fill="white"/>
</clipPath>
</defs>
</svg>
