<svg width="43" height="36" viewBox="0 0 43 36" fill="none" xmlns="http://www.w3.org/2000/svg">
<g clip-path="url(#clip0_2_199)">
<path d="M43 4.30167C43 4.30167 42.2453 6.39027 39.483 8.69375C39.483 8.69375 38.2412 48.2338 0 32.1584C0 32.1584 8.26094 31.7852 12.6851 28.3281C12.6851 28.3281 6.31653 27.3479 4.67698 22.1075C4.67698 22.1075 7.21624 21.8926 8.30183 21.6853C8.30183 21.6853 0.57254 19.0236 1.57263 12.6598C1.57263 12.6598 3.96689 13.8398 5.23465 13.689C5.23465 13.689 -1.18598 8.59196 2.74745 1.70035C2.74745 1.70035 12.6628 11.1594 21.1208 10.8464C21.1208 10.8464 20.2174 2.35257 27.7273 0.309212C27.7273 0.309212 32.5567 -1.28928 36.5868 2.74842C36.5868 2.74842 39.7395 1.99064 41.933 0.757846C41.933 0.757846 42.6282 0.392153 41.9813 1.61741C41.9813 1.61741 40.6206 4.53541 38.6167 5.5684C38.6167 5.5684 42.13 4.90488 43 4.30167Z" fill="#A8A8A8"/>
</g>
<defs>
<clipPath id="clip0_2_199">
<rect width="43" height="36" fill="white"/>
</clipPath>
</defs>
</svg>
